<?xml version="1.0" encoding="utf-8" ?>
<svg baseProfile="tiny" height="1024px" version="1.2" width="1024px" xmlns="http://www.w3.org/2000/svg" xmlns:ev="http://www.w3.org/2001/xml-events" xmlns:xlink="http://www.w3.org/1999/xlink"><defs /><path d="M 299,754 L 298,755 L 295,755 L 294,756 L 293,756 L 292,757 L 291,757 L 288,760 L 288,761 L 287,762 L 287,763 L 286,764 L 286,765 L 285,766 L 285,775 L 286,776 L 286,778 L 287,779 L 287,780 L 291,784 L 292,784 L 293,785 L 295,785 L 296,786 L 750,786 L 751,785 L 753,785 L 754,784 L 755,784 L 759,780 L 759,779 L 760,778 L 760,777 L 761,776 L 761,772 L 762,771 L 762,768 L 761,767 L 761,764 L 760,763 L 760,762 L 755,757 L 754,757 L 753,756 L 752,756 L 751,755 L 749,755 L 748,754 Z" fill="rgb(33,114,151)" stroke="none" /><path d="M 360,498 L 359,499 L 358,499 L 357,500 L 356,500 L 355,501 L 355,502 L 353,504 L 353,505 L 352,506 L 352,540 L 351,541 L 352,542 L 352,543 L 351,544 L 351,545 L 352,546 L 351,547 L 351,552 L 352,553 L 352,592 L 351,593 L 352,594 L 352,603 L 351,604 L 352,605 L 352,610 L 351,611 L 352,612 L 352,627 L 351,628 L 352,629 L 352,637 L 351,638 L 352,639 L 351,640 L 351,641 L 352,642 L 352,643 L 351,644 L 351,645 L 352,646 L 352,651 L 351,652 L 352,653 L 351,654 L 352,655 L 351,656 L 352,657 L 352,658 L 351,659 L 351,661 L 352,662 L 352,664 L 351,665 L 351,671 L 352,672 L 352,676 L 351,677 L 352,678 L 352,679 L 351,680 L 351,682 L 352,683 L 352,685 L 351,686 L 351,688 L 352,689 L 351,690 L 351,693 L 352,694 L 351,695 L 352,696 L 351,697 L 351,698 L 352,699 L 352,700 L 351,701 L 352,702 L 352,703 L 351,704 L 351,712 L 352,713 L 352,715 L 353,716 L 353,717 L 357,721 L 358,721 L 359,722 L 360,722 L 361,723 L 432,723 L 433,722 L 435,722 L 436,721 L 437,721 L 440,718 L 440,717 L 441,716 L 441,715 L 442,714 L 442,507 L 441,506 L 441,505 L 440,504 L 440,503 L 436,499 L 434,499 L 433,498 Z" fill="rgb(56,159,143)" stroke="none" /><path d="M 487,433 L 486,434 L 485,434 L 484,435 L 483,435 L 481,437 L 481,438 L 479,440 L 480,441 L 479,442 L 479,715 L 480,716 L 480,717 L 484,721 L 485,721 L 486,722 L 487,722 L 488,723 L 560,723 L 561,722 L 562,722 L 563,721 L 564,721 L 567,718 L 567,717 L 568,716 L 568,715 L 569,714 L 569,442 L 568,441 L 568,439 L 563,434 L 562,434 L 561,433 Z" fill="rgb(56,158,143)" stroke="none" /><path d="M 617,401 L 616,402 L 614,402 L 613,403 L 612,403 L 609,406 L 609,407 L 608,408 L 608,409 L 607,410 L 607,715 L 608,716 L 608,717 L 612,721 L 613,721 L 614,722 L 615,722 L 616,723 L 687,723 L 688,722 L 690,722 L 691,721 L 692,721 L 695,718 L 695,717 L 696,716 L 696,715 L 697,714 L 697,411 L 696,410 L 696,408 L 694,406 L 694,405 L 693,404 L 692,404 L 691,403 L 690,403 L 689,402 L 688,402 L 687,401 Z" fill="rgb(56,159,143)" stroke="none" /><path d="M 697,341 L 696,342 L 694,342 L 693,343 L 692,343 L 692,344 L 689,347 L 689,349 L 688,350 L 688,355 L 689,356 L 689,358 L 694,363 L 696,363 L 697,364 L 748,364 L 749,363 L 750,363 L 751,362 L 752,362 L 755,359 L 755,358 L 756,357 L 756,355 L 757,354 L 757,351 L 756,350 L 756,348 L 755,347 L 755,346 L 751,342 L 749,342 L 748,341 Z" fill="rgb(254,147,76)" stroke="none" /><path d="M 526,341 L 525,342 L 523,342 L 518,347 L 518,351 L 517,352 L 517,354 L 518,355 L 518,357 L 519,358 L 519,359 L 522,362 L 523,362 L 524,363 L 526,363 L 527,364 L 578,364 L 579,363 L 581,363 L 583,361 L 584,361 L 584,360 L 586,358 L 586,356 L 587,355 L 587,353 L 588,352 L 587,351 L 587,349 L 586,348 L 586,347 L 585,346 L 585,345 L 584,344 L 583,344 L 581,342 L 579,342 L 578,341 Z" fill="rgb(254,147,76)" stroke="none" /><path d="M 711,268 L 710,269 L 708,269 L 707,270 L 706,270 L 705,271 L 704,271 L 671,304 L 671,305 L 670,306 L 670,309 L 669,310 L 669,312 L 670,313 L 670,316 L 675,321 L 677,321 L 678,322 L 684,322 L 685,321 L 686,321 L 687,320 L 688,320 L 721,287 L 721,286 L 722,285 L 722,284 L 723,283 L 723,276 L 722,275 L 722,274 L 718,270 L 717,270 L 716,269 L 713,269 L 712,268 Z" fill="rgb(254,149,77)" stroke="none" /><path d="M 561,268 L 560,269 L 558,269 L 557,270 L 556,270 L 553,273 L 553,274 L 552,275 L 552,276 L 551,277 L 551,283 L 552,284 L 552,286 L 554,288 L 554,289 L 573,308 L 574,308 L 586,320 L 587,320 L 588,321 L 589,321 L 590,322 L 596,322 L 597,321 L 598,321 L 599,320 L 600,320 L 603,317 L 603,316 L 604,315 L 604,313 L 605,312 L 605,311 L 604,310 L 604,306 L 603,305 L 603,304 L 570,271 L 569,271 L 568,270 L 567,270 L 566,269 L 563,269 L 562,268 Z" fill="rgb(254,150,79)" stroke="none" /><path d="M 635,232 L 634,233 L 633,233 L 632,234 L 631,234 L 627,238 L 627,239 L 626,240 L 626,248 L 625,249 L 626,250 L 625,251 L 625,256 L 626,257 L 626,267 L 625,268 L 625,269 L 626,270 L 626,276 L 625,277 L 625,279 L 626,280 L 626,283 L 625,284 L 626,285 L 626,298 L 627,299 L 627,300 L 628,301 L 628,302 L 631,305 L 632,305 L 633,306 L 636,306 L 637,307 L 638,306 L 642,306 L 643,305 L 644,305 L 647,302 L 647,301 L 648,300 L 648,299 L 649,298 L 649,243 L 648,242 L 649,241 L 648,240 L 648,239 L 647,238 L 647,237 L 644,234 L 643,234 L 642,233 L 641,233 L 640,232 Z" fill="rgb(254,149,77)" stroke="none" /></svg>